<svg xmlns="http://www.w3.org/2000/svg" version="1.1" xmlns:xlink="http://www.w3.org/1999/xlink" xmlns:svgjs="http://svgjs.dev/svgjs" width="1000" height="229" viewBox="0 0 1000 229"><g transform="matrix(1,0,0,1,-0.6060606060606801,0.48032063453538854)"><svg viewBox="0 0 396 91" data-background-color="#ffffff" preserveAspectRatio="xMidYMid meet" height="229" width="1000" xmlns="http://www.w3.org/2000/svg" xmlns:xlink="http://www.w3.org/1999/xlink"><g id="tight-bounds" transform="matrix(1,0,0,1,0.24000000000003752,-0.1906962949470028)"><svg viewBox="0 0 395.5199999999999 91.38155047756159" height="91.38155047756159" width="395.5199999999999"><g><svg viewBox="0 0 542.1866174891397 125.26763186271795" height="91.38155047756159" width="395.5199999999999"><g transform="matrix(1,0,0,1,146.66661748913975,17.312675604760585)"><svg viewBox="0 0 395.52 90.64228065319678" height="90.64228065319678" width="395.52"><g><svg viewBox="0 0 395.52 90.64228065319678" height="90.64228065319678" width="395.52"><g><svg viewBox="0 0 395.52 90.64228065319678" height="90.64228065319678" width="395.52"><g transform="matrix(1,0,0,1,0,0)"><svg width="395.52" viewBox="0.8100000023841858 -40.43000030517578 176.40000915527344 40.43000030517578" height="90.64228065319678" data-palette-color="#636365"><path d="M27.15-11.87L19.73-11.87 20.43-13.62 26.44-13.62 27.15-11.87ZM28.56-8.35L18.36-8.35 19.04-10.11 27.81-10.11 28.56-8.35ZM29.93-4.83L16.99-4.83 17.68-6.59 29.2-6.59 29.93-4.83ZM17.75-38.06L2.71 0 0.81 0 16.8-40.43 18.7-40.43 34.67 0 32.79 0 17.75-38.06ZM4.59 0L17.97-33.89 18.97-31.64 6.47 0 4.59 0ZM8.37 0L19.92-29.25 20.85-26.83 10.28 0 8.37 0ZM12.16 0L21.78-24.41 22.71-21.95 14.04 0 12.16 0ZM30.03-40.43L46.02 0 44.12 0 28.15-40.43 30.03-40.43ZM24.37-40.43L26.25-40.43 42.24 0 40.36 0 24.37-40.43ZM20.58-40.43L22.46-40.43 38.45 0 36.55 0 20.58-40.43ZM59.64 0L59.64-40.43 61.4-40.43 61.4 0 59.64 0ZM56.13 0L56.13-40.43 57.88-40.43 57.88 0 56.13 0ZM52.61 0L52.61-40.43 54.37-40.43 54.37 0 52.61 0ZM49.09 0L49.09-40.43 50.85-40.43 50.85 0 49.09 0ZM90.91-11.87L83.49-11.87 84.2-13.62 90.2-13.62 90.91-11.87ZM92.33-8.35L82.12-8.35 82.81-10.11 91.57-10.11 92.33-8.35ZM93.7-4.83L80.76-4.83 81.44-6.59 92.96-6.59 93.7-4.83ZM81.51-38.06L66.47 0 64.57 0 80.56-40.43 82.47-40.43 98.43 0 96.55 0 81.51-38.06ZM68.35 0L81.73-33.89 82.73-31.64 70.23 0 68.35 0ZM72.14 0L83.69-29.25 84.61-26.83 74.04 0 72.14 0ZM75.92 0L85.54-24.41 86.47-21.95 77.8 0 75.92 0ZM93.79-40.43L109.79 0 107.88 0 91.91-40.43 93.79-40.43ZM88.13-40.43L90.01-40.43 106 0 104.12 0 88.13-40.43ZM84.35-40.43L86.23-40.43 102.22 0 100.31 0 84.35-40.43ZM126.14-18.36L126.14-20.12 136.74-20.12Q139.15-20.12 140.83-21.68 142.5-23.24 142.5-26.12L142.5-26.12Q142.5-28.25 140.74-29.94 138.98-31.64 136.74-31.64L136.74-31.64 121.65-31.64 121.65 0 119.89 0 119.89-33.4 136.74-33.4Q139.71-33.4 141.98-31.19 144.26-28.98 144.26-26.12L144.26-26.12Q144.26-22.61 142.06-20.48 139.86-18.36 136.74-18.36L136.74-18.36 126.14-18.36ZM126.14-14.84L126.14-16.6 136.74-16.6Q140.54-16.6 143.28-19.27 146.01-21.95 146.01-26.12L146.01-26.12Q146.01-29.71 143.22-32.43 140.42-35.16 136.74-35.16L136.74-35.16 118.13-35.16 118.13 0 116.37 0 116.37-36.91 136.74-36.91Q139.64-36.91 142.19-35.42 144.74-33.94 146.26-31.43 147.77-28.93 147.77-26.12L147.77-26.12Q147.77-21.31 144.51-18.08 141.25-14.84 136.74-14.84L136.74-14.84 126.14-14.84ZM126.14-11.33L126.14-13.09 136.74-13.09Q140.15-13.09 143.08-14.77 146.01-16.46 147.77-19.47 149.53-22.49 149.53-26.12L149.53-26.12Q149.53-29.42 147.78-32.31 146.04-35.21 143.08-36.94 140.13-38.67 136.74-38.67L136.74-38.67 114.62-38.67 114.62 0 112.86 0 112.86-40.43 136.74-40.43Q140.57-40.43 143.94-38.46 147.31-36.5 149.3-33.19 151.29-29.88 151.29-26.12L151.29-26.12Q151.29-21.78 149.42-18.48 147.55-15.19 144.35-13.33L144.35-13.33 148.89 0 147.04 0 142.69-12.5Q141.72-12.11 141.2-11.96L141.2-11.96 145.28 0 143.43 0 139.45-11.55Q139.23-11.5 137.88-11.38L137.88-11.38 141.67 0 139.81 0 136.08-11.33 134.49-11.33 138.05 0 136.2 0 132.61-11.33 126.14-11.33ZM125.16-28.13L125.16 0 123.41 0 123.41-29.88 136.74-29.88Q138.37-29.88 139.56-28.77 140.74-27.66 140.74-26.12L140.74-26.12Q140.74-21.88 136.74-21.88L136.74-21.88 126.14-21.88 126.14-23.63 136.74-23.63Q137.79-23.63 138.38-24.18 138.98-24.73 138.98-26.12L138.98-26.12Q138.98-26.98 138.33-27.55 137.69-28.13 136.74-28.13L136.74-28.13 125.16-28.13ZM177.21-38.67L150.84-38.67 150.84-40.43 177.21-40.43 177.21-38.67ZM177.21-35.16L150.84-35.16 150.84-36.91 177.21-36.91 177.21-35.16ZM157.88-31.64L150.84-31.64 150.84-33.4 177.21-33.4 177.21-31.64 170.18-31.64 170.18 0 168.42 0 168.42-31.64 166.66-31.64 166.66 0 164.91 0 164.91-31.64 163.15-31.64 163.15 0 161.39 0 161.39-31.64 159.63-31.64 159.63 0 157.88 0 157.88-31.64Z" opacity="1" transform="matrix(1,0,0,1,0,0)" fill="#636365" class="undefined-text-0" data-fill-palette-color="primary" id="text-0"></path></svg></g></svg></g></svg></g></svg></g><g><svg viewBox="0 0 125.26815044165566 125.26763186271795" height="125.26763186271795" width="125.26815044165566"><g><svg xmlns="http://www.w3.org/2000/svg" xmlns:xlink="http://www.w3.org/1999/xlink" version="1.0" x="0" y="0" viewBox="4.667731761932373 4.685959815979004 90.3050308227539 90.30465698242188" enable-background="new 0 0 100 100" xml:space="preserve" height="125.26763186271795" width="125.26815044165566" class="icon-icon-0" data-fill-palette-color="accent" id="icon-0"><path d="M17.504 35.743c-1.334 8.611 0.522 17.134 5.093 23.382 3.514 4.801 8.413 7.905 13.796 8.739 5.677 0.88 11.253-0.429 15.703-3.685 1.248-0.912 2.36-1.946 3.326-3.076-2.222 0.978-4.814 1.267-7.626 0.831-11.717-1.816-19.673-13.464-17.735-25.964 0.934-6.03 4.384-11.497 9.713-15.397 6.768-4.952 15.953-6.97 25.201-5.537 7.474 1.158 17.67 5.964 25.56 15.213 0 0-22.835-39.421-56.115-20.356C23.689 16.04 18.653 28.323 17.504 35.743z" fill="#89939e" data-fill-palette-color="accent"></path><path d="M82.544 65.256c1.659-8.555 0.125-17.141-4.207-23.557-3.331-4.931-8.109-8.217-13.457-9.253-5.639-1.094-11.261 0.004-15.83 3.091-1.282 0.863-2.431 1.854-3.44 2.947 2.257-0.894 4.859-1.084 7.652-0.543 11.64 2.257 19.151 14.196 16.744 26.616-1.161 5.989-4.815 11.324-10.288 15.019-6.949 4.692-16.205 6.364-25.393 4.582C26.902 82.719 16.894 77.532 9.358 67.992c0 0 21.331 40.255 55.307 22.457C75.621 84.712 81.115 72.628 82.544 65.256z" fill="#89939e" data-fill-palette-color="accent"></path><path d="M35.726 82.88c8.611 1.334 17.133-0.522 23.381-5.094 4.801-3.514 7.905-8.413 8.74-13.796 0.879-5.676-0.429-11.253-3.686-15.702-0.912-1.248-1.946-2.36-3.076-3.327 0.979 2.222 1.267 4.815 0.831 7.626-1.816 11.717-13.463 19.673-25.965 17.736-6.029-0.934-11.497-4.385-15.395-9.713-4.952-6.768-6.971-15.954-5.538-25.202 1.158-7.474 5.964-17.67 15.213-25.559 0 0-39.421 22.835-20.356 56.115C16.022 76.695 28.305 81.73 35.726 82.88z" fill="#89939e" data-fill-palette-color="accent"></path><path d="M90.432 35.718c-5.738-10.955-17.822-16.45-25.194-17.879-8.554-1.659-17.141-0.125-23.557 4.208-4.931 3.331-8.217 8.108-9.254 13.456-1.094 5.64 0.004 11.261 3.092 15.83 0.863 1.282 1.854 2.431 2.946 3.441-0.894-2.257-1.084-4.859-0.542-7.652 2.257-11.64 14.196-19.151 26.615-16.744 5.99 1.161 11.324 4.816 15.019 10.289 4.693 6.949 6.363 16.204 4.583 25.392-1.44 7.423-6.626 17.431-16.167 24.966C67.973 91.025 108.228 69.694 90.432 35.718z" fill="#89939e" data-fill-palette-color="accent"></path></svg></g></svg></g></svg></g><defs></defs></svg><rect width="395.5199999999999" height="91.38155047756159" fill="none" stroke="none" visibility="hidden"></rect></g></svg></g></svg>